<?xml version="1.0" encoding="iso-8859-1"?>
<svg height="16" width="16" version="1.1" id="Layer_1" xmlns="http://www.w3.org/2000/svg" xmlns:xlink="http://www.w3.org/1999/xlink" 
	 viewBox="0 0 508.587 508.587" xml:space="preserve" transform="rotate(90 254 254)">
<g transform="translate(1)">
	<path style="fill:#FD9808;" d="M340.653,201.387L305.667,166.4c-6.827-6.827-6.827-17.92,0.853-24.747l133.973-122.88
		c13.653-13.653,34.987-13.653,48.64,0s13.653,34.987,0,48.64L365.4,200.533C359.427,207.36,347.48,208.213,340.653,201.387"/>
	<path style="fill:#FFDD09;" d="M329.56,188.587L307.373,166.4c-4.267-4.267-2.56-13.653,5.12-20.48L443.907,20.48
		c13.653-13.653,30.72-17.067,39.253-8.533c8.533,8.533,4.267,26.453-8.533,39.253L350.04,183.467
		C343.213,190.293,333.827,192.853,329.56,188.587"/>
	<path style="fill:#FD9808;" d="M260.44,434.347l12.8-31.573l-17.067-6.827c5.12-19.627,4.267-40.107,0-58.88l0,0l17.067-6.827
		l-13.653-31.573l-17.067,6.827l0,0c-10.24-17.067-23.893-30.72-41.813-41.813l6.827-17.067l-31.573-12.8l-6.827,17.067
		c-19.627-5.12-40.107-4.267-58.88,0l0,0l-6.827-17.067l-31.573,13.653l6.827,17.067l0,0c-17.067,10.24-30.72,23.893-41.813,41.813
		L19.8,299.52L7,331.093l17.067,6.827c-5.12,19.627-4.267,40.107,0,58.88L7,403.627L20.653,435.2l17.067-6.827
		c10.24,17.067,23.893,30.72,41.813,41.813l-6.827,17.067l31.573,12.8l6.827-17.067c19.627,5.12,40.107,4.267,58.88,0l6.827,17.067
		l31.573-13.653l-6.827-17.067c17.067-10.24,30.72-23.893,41.813-41.813L260.44,434.347z"/>
	<path style="fill:#FFDD09;" d="M239.107,434.347l12.8-31.573l-15.36-5.973c5.12-19.627,5.12-39.253,1.707-58.027l0,0l16.213-7.68
		l-11.947-30.72l-15.36,6.827l0,0c-8.533-16.213-21.333-29.867-37.547-39.253l6.827-17.067l-29.013-11.947L160.6,256
		c-17.92-4.267-36.693-3.413-54.613,1.707l0,0l-5.973-16.213L70.147,256l5.973,16.213l0,0
		c-16.213,10.24-29.867,24.747-39.253,42.667l-15.36-5.973l-12.8,31.573l15.36,5.973c-5.12,19.627-5.12,39.253-1.707,58.027
		l-16.213,7.68l11.093,30.72l16.213-7.68c8.533,16.213,21.333,29.867,37.547,39.253l-6.827,17.067l29.013,11.947l6.827-17.067
		c17.92,4.267,36.693,3.413,54.613-1.707l19.627,10.24l16.213-7.68l-5.973-16.213c16.213-10.24,29.867-24.747,39.253-42.667
		L239.107,434.347z"/>
	<path style="fill:#54C9FD;" d="M140.12,392.533c-14.507,0-25.6-11.093-25.6-25.6s11.093-25.6,25.6-25.6
		c14.507,0,25.6,11.093,25.6,25.6S154.627,392.533,140.12,392.533"/>
	<path d="M464.387,34.133c5.12,0,8.533,3.413,8.533,8.533s-3.413,8.533-8.533,8.533s-8.533-3.413-8.533-8.533
		S459.267,34.133,464.387,34.133"/>
	<path d="M104.28,508.587c-0.853,0-2.56,0-3.413-0.853l-31.573-12.8c-4.267-1.707-6.827-6.827-4.267-11.093l4.267-10.24
		c-13.653-9.387-25.6-20.48-34.133-34.133l-11.093,4.267c-1.707,0.853-4.267,0.853-6.827,0c-1.707-0.853-3.413-2.56-4.267-4.267
		l-12.8-31.573c-0.853-1.707-0.853-4.267,0-6.827c0.853-1.707,2.56-3.413,4.267-4.267l10.24-4.267
		c-3.413-16.213-3.413-32.427,0-48.64l-10.24-4.267c-1.707-0.853-3.413-2.56-4.267-4.267s-0.853-4.267,0-6.827l11.947-32.427
		c0.853-1.707,2.56-3.413,4.267-4.267c1.707-0.853,4.267-0.853,6.827,0l10.24,4.267c9.387-13.653,20.48-25.6,34.133-34.133
		L63.32,250.88c-0.853-1.707-0.853-4.267,0-6.827c0.853-1.707,2.56-3.413,4.267-4.267l31.573-12.8c1.707-0.853,4.267-0.853,6.827,0
		c1.707,0.853,3.413,2.56,4.267,4.267l4.267,10.24c16.213-3.413,32.427-3.413,48.64,0l4.267-10.24
		c0.853-1.707,2.56-3.413,4.267-4.267c1.707-0.853,4.267-0.853,6.827,0l31.573,12.8c1.707,0.853,3.413,2.56,4.267,4.267
		c0.853,1.707,0.853,4.267,0,6.827l-4.267,10.24c13.653,9.387,25.6,20.48,34.133,34.133l10.24-4.267
		c1.707-0.853,4.267-0.853,6.827,0c1.707,0.853,3.413,2.56,4.267,4.267l12.8,31.573c1.707,4.267,0,9.387-4.267,11.093l-10.24,4.267
		c3.413,16.213,3.413,32.427,0,48.64l10.24,4.267c1.707,0.853,3.413,2.56,4.267,4.267s0.853,4.267,0,6.827l-10.24,31.573
		c-1.707,4.267-6.827,6.827-11.093,4.267l-10.24-4.267c-9.387,13.653-20.48,25.6-34.133,34.133l4.267,10.24
		c1.707,4.267,0,9.387-4.267,11.093L181.08,506.88c-1.707,0.853-4.267,0.853-6.827,0c-1.707-0.853-3.413-2.56-4.267-4.267
		l-4.267-10.24c-16.213,3.413-32.427,3.413-48.64,0l-4.267,10.24C111.107,506.027,107.693,508.587,104.28,508.587z M83.8,482.133
		l16.213,6.827l3.413-9.387c1.707-4.267,5.973-5.973,10.24-5.12c17.92,4.267,36.693,4.267,54.613,0
		c4.267-0.853,8.533,0.853,10.24,5.12l3.413,9.387l15.36-6.827l-4.267-9.387c-1.707-4.267,0-8.533,3.413-10.24
		c16.213-9.387,29.013-23.04,38.4-38.4c2.56-3.413,6.827-5.12,10.24-3.413l9.387,3.413l6.827-16.213l-9.387-3.413
		c-4.267-1.707-5.973-5.973-5.12-10.24c4.267-17.92,4.267-36.693,0-54.613c-0.853-4.267,0.853-8.533,5.12-10.24l9.387-3.413
		l-6.827-15.36l-9.387,3.413c-4.267,1.707-8.533,0-10.24-3.413c-9.387-16.213-23.04-29.013-38.4-38.4
		c-3.413-2.56-5.12-6.827-3.413-10.24l3.413-9.387l-16.213-6.827l-3.413,9.387c-1.707,4.267-5.973,5.973-10.24,5.12
		c-17.92-4.267-36.693-4.267-54.613,0c-4.267,0.853-8.533-0.853-10.24-5.12l-3.413-9.387l-15.36,6.827l3.413,9.387
		c1.707,4.267,0,8.533-3.413,10.24c-16.213,9.387-29.013,23.04-38.4,38.4c-1.707,3.413-6.827,5.12-10.24,3.413l-9.387-3.413
		l-6.827,16.213l9.387,3.413c4.267,1.707,5.973,5.973,5.12,10.24c-4.267,17.92-4.267,36.693,0,54.613
		c0.853,4.267-0.853,8.533-5.12,10.24l-9.387,3.413l6.827,15.36l9.387-3.413c4.267-1.707,8.533,0,10.24,3.413
		c9.387,16.213,23.04,29.013,38.4,38.4c3.413,2.56,5.12,6.827,3.413,10.24L83.8,482.133z"/>
	<path d="M224.6,290.987c-2.56,0-4.267-0.853-5.973-2.56c-3.413-3.413-3.413-8.533,0-11.947l98.987-98.987
		c3.413-3.413,8.533-3.413,11.947,0c3.413,3.413,3.413,8.533,0,11.947l-98.987,98.987
		C228.867,290.133,226.307,290.987,224.6,290.987z"/>
	<path d="M352.6,215.04c-6.827,0-12.8-2.56-17.92-7.68l-34.987-34.987c-5.12-5.12-7.68-11.947-7.68-18.773
		c0-6.827,3.413-13.653,8.533-17.92L434.52,11.947C442.2,4.267,453.293,0,464.387,0s22.187,4.267,29.867,12.8
		s12.8,18.773,12.8,29.867s-4.267,22.187-12.8,29.867L372.227,206.507C367.107,211.627,360.28,214.187,352.6,215.04
		C353.453,215.04,353.453,215.04,352.6,215.04z M464.387,17.067c-6.827,0-13.653,2.56-17.92,7.68l-133.973,122.88
		c-1.707,1.707-2.56,3.413-2.56,5.973c0,2.56,0.853,4.267,2.56,5.973l34.987,34.987l0,0c1.707,1.707,4.267,2.56,5.973,2.56
		c2.56,0,4.267-0.853,5.973-2.56l122.88-133.12c5.12-5.12,7.68-11.947,7.68-18.773s-2.56-13.653-7.68-17.92
		C478.04,19.627,471.213,17.067,464.387,17.067z"/>
	<path d="M421.72,147.627c-5.12,0-8.533-3.413-8.533-8.533V35.84c0-5.12,3.413-8.533,8.533-8.533c5.12,0,8.533,3.413,8.533,8.533
		v104.107C430.253,144.213,426.84,147.627,421.72,147.627z"/>
	<path d="M370.52,203.947c-5.12,0-8.533-3.413-8.533-8.533V82.773c0-5.12,3.413-8.533,8.533-8.533s8.533,3.413,8.533,8.533v112.64
		C379.053,199.68,375.64,203.947,370.52,203.947z"/>
	<path d="M140.12,401.067c-18.773,0-34.133-15.36-34.133-34.133s15.36-34.133,34.133-34.133s34.133,15.36,34.133,34.133
		S158.893,401.067,140.12,401.067z M140.12,349.867c-9.387,0-17.067,7.68-17.067,17.067S130.733,384,140.12,384
		c9.387,0,17.067-7.68,17.067-17.067S149.507,349.867,140.12,349.867z"/>
	<path d="M182.787,332.8c-2.56,0-4.267-0.853-5.973-2.56c-3.413-3.413-3.413-8.533,0-11.947l17.067-17.067
		c3.413-3.413,8.533-3.413,11.947,0c3.413,3.413,3.413,8.533,0,11.947L188.76,330.24C187.053,331.947,185.347,332.8,182.787,332.8z"
		/>
	<path d="M80.387,435.2c-2.56,0-4.267-0.853-5.973-2.56c-3.413-3.413-3.413-8.533,0-11.947l17.067-17.067
		c3.413-3.413,8.533-3.413,11.947,0c3.413,3.413,3.413,8.533,0,11.947L86.36,432.64C84.653,434.347,82.947,435.2,80.387,435.2z"/>
	<path d="M97.453,332.8c-2.56,0-4.267-0.853-5.973-2.56l-17.92-17.92c-3.413-3.413-3.413-8.533,0-11.947
		c3.413-3.413,8.533-3.413,11.947,0l17.92,17.92c3.413,3.413,3.413,8.533,0,11.947C102.573,332.8,100.013,332.8,97.453,332.8z"/>
	<path d="M199.853,435.2c-2.56,0-4.267-0.853-5.973-2.56l-17.067-17.067c-3.413-3.413-3.413-8.533,0-11.947
		c3.413-3.413,8.533-3.413,11.947,0l17.067,17.067c3.413,3.413,3.413,8.533,0,11.947C204.12,434.347,202.413,435.2,199.853,435.2z"
		/>
	<path d="M140.12,324.267c-5.12,0-8.533-3.413-8.533-8.533v-25.6c0-5.12,3.413-8.533,8.533-8.533c5.12,0,8.533,3.413,8.533,8.533
		v25.6C148.653,320.853,145.24,324.267,140.12,324.267z"/>
	<path d="M140.12,460.8c-5.12,0-8.533-3.413-8.533-8.533v-25.6c0-5.12,3.413-8.533,8.533-8.533c5.12,0,8.533,3.413,8.533,8.533v25.6
		C148.653,457.387,145.24,460.8,140.12,460.8z"/>
	<path d="M80.387,375.467h-25.6c-5.12,0-8.533-3.413-8.533-8.533s3.413-8.533,8.533-8.533h25.6c5.12,0,8.533,3.413,8.533,8.533
		S85.507,375.467,80.387,375.467z"/>
	<path d="M225.453,375.467h-25.6c-5.12,0-8.533-3.413-8.533-8.533s3.413-8.533,8.533-8.533h25.6c5.12,0,8.533,3.413,8.533,8.533
		S230.573,375.467,225.453,375.467z"/>
</g>
</svg>